<?xml version="1.0" encoding="UTF-8"?>
<svg width="365px" height="364px" viewBox="0 0 365 364" version="1.1" xmlns="http://www.w3.org/2000/svg" xmlns:xlink="http://www.w3.org/1999/xlink">
    <title>dial</title>
    <g id="页面-1" stroke="none" stroke-width="1" fill="none" fill-rule="evenodd">
        <g id="dial">
            <rect id="矩形" opacity="0.100000001" x="0" y="0" width="364" height="364"></rect>
            <path d="M184,349 L184,364 L182,364 L182,349 L184,349 Z M201.450775,347.980628 L203.018702,362.898456 L201.029658,363.107513 L199.461731,348.189685 L201.450775,347.980628 Z M164.549225,347.980628 L166.538269,348.189685 L164.970342,363.107513 L162.981298,362.898456 L164.549225,347.980628 Z M218.6994,345.142738 L221.818075,359.814952 L219.86178,360.230775 L216.743105,345.558561 L218.6994,345.142738 Z M147.3006,345.142738 L149.256895,345.558561 L146.13822,360.230775 L144.181925,359.814952 L147.3006,345.142738 Z M235.556895,340.517421 L240.192149,354.783269 L238.290036,355.401303 L233.654782,341.135455 L235.556895,340.517421 Z M130.443105,340.517421 L132.345218,341.135455 L127.709964,355.401303 L125.807851,354.783269 L130.443105,340.517421 Z M251.838565,334.155355 L257.939614,347.858537 L256.112524,348.67201 L250.011474,334.968828 L251.838565,334.155355 Z M114.161435,334.155355 L115.988526,334.968828 L109.887476,348.67201 L108.060386,347.858537 L114.161435,334.155355 Z M267.366025,326.126242 L274.866025,339.116623 L273.133975,340.116623 L265.633975,327.126242 L267.366025,326.126242 Z M98.6339746,326.126242 L100.366025,327.126242 L92.8660254,340.116623 L91.1339746,339.116623 L98.6339746,326.126242 Z M281.969154,316.518053 L290.785933,328.653308 L289.167899,329.828878 L280.35112,317.693623 L281.969154,316.518053 Z M84.0308459,316.518053 L85.6488799,317.693623 L76.8321011,329.828878 L75.2140671,328.653308 L84.0308459,316.518053 Z M295.487956,305.436055 L305.524915,316.583228 L304.038626,317.921489 L294.001666,306.774316 L295.487956,305.436055 Z M70.5120439,305.436055 L71.9983336,306.774316 L61.9613745,317.921489 L60.4750848,316.583228 L70.5120439,305.436055 Z M307.774316,293.001666 L318.921489,303.038626 L317.583228,304.524915 L306.436055,294.487956 L307.774316,293.001666 Z M58.2256835,293.001666 L59.5639448,294.487956 L48.4167724,304.524915 L47.0785112,303.038626 L58.2256835,293.001666 Z M318.693623,279.35112 L330.828878,288.167899 L329.653308,289.785933 L317.518053,280.969154 L318.693623,279.35112 Z M47.3063767,279.35112 L48.4819472,280.969154 L36.3466923,289.785933 L35.1711218,288.167899 L47.3063767,279.35112 Z M328.126242,264.633975 L341.116623,272.133975 L340.116623,273.866025 L327.126242,266.366025 L328.126242,264.633975 Z M37.8737576,264.633975 L38.8737576,266.366025 L25.8833765,273.866025 L24.8833765,272.133975 L37.8737576,264.633975 Z M335.968828,249.011474 L349.67201,255.112524 L348.858537,256.939614 L335.155355,250.838565 L335.968828,249.011474 Z M30.0311719,249.011474 L30.8446452,250.838565 L17.1414634,256.939614 L16.3279901,255.112524 L30.0311719,249.011474 Z M342.135455,232.654782 L356.401303,237.290036 L355.783269,239.192149 L341.517421,234.556895 L342.135455,232.654782 Z M23.8645448,232.654782 L24.4825788,234.556895 L10.216731,239.192149 L9.59869704,237.290036 L23.8645448,232.654782 Z M346.558561,215.743105 L361.230775,218.86178 L360.814952,220.818075 L346.142738,217.6994 L346.558561,215.743105 Z M19.441439,215.743105 L19.8572624,217.6994 L5.18504836,220.818075 L4.76922498,218.86178 L19.441439,215.743105 Z M349.189685,198.461731 L364.107513,200.029658 L363.898456,202.018702 L348.980628,200.450775 L349.189685,198.461731 Z M16.810315,198.461731 L17.0193719,200.450775 L2.10154351,202.018702 L1.89248658,200.029658 L16.810315,198.461731 Z M365,181 L365,183 L350,183 L350,181 L365,181 Z M16,181 L16,183 L1,183 L1,181 L16,181 Z M363.898456,161.981298 L364.107513,163.970342 L349.189685,165.538269 L348.980628,163.549225 L363.898456,161.981298 Z M2.10154351,161.981298 L17.0193719,163.549225 L16.810315,165.538269 L1.89248658,163.970342 L2.10154351,161.981298 Z M360.814952,143.181925 L361.230775,145.13822 L346.558561,148.256895 L346.142738,146.3006 L360.814952,143.181925 Z M5.18504836,143.181925 L19.8572624,146.3006 L19.441439,148.256895 L4.76922498,145.13822 L5.18504836,143.181925 Z M355.783269,124.807851 L356.401303,126.709964 L342.135455,131.345218 L341.517421,129.443105 L355.783269,124.807851 Z M10.216731,124.807851 L24.4825788,129.443105 L23.8645448,131.345218 L9.59869704,126.709964 L10.216731,124.807851 Z M348.858537,107.060386 L349.67201,108.887476 L335.968828,114.988526 L335.155355,113.161435 L348.858537,107.060386 Z M17.1414634,107.060386 L30.8446452,113.161435 L30.0311719,114.988526 L16.3279901,108.887476 L17.1414634,107.060386 Z M340.116623,90.1339746 L341.116623,91.8660254 L328.126242,99.3660254 L327.126242,97.6339746 L340.116623,90.1339746 Z M25.8833765,90.1339746 L38.8737576,97.6339746 L37.8737576,99.3660254 L24.8833765,91.8660254 L25.8833765,90.1339746 Z M329.653308,74.2140671 L330.828878,75.8321011 L318.693623,84.6488799 L317.518053,83.0308459 L329.653308,74.2140671 Z M36.3466923,74.2140671 L48.4819472,83.0308459 L47.3063767,84.6488799 L35.1711218,75.8321011 L36.3466923,74.2140671 Z M317.583228,59.4750848 L318.921489,60.9613745 L307.774316,70.9983336 L306.436055,69.5120439 L317.583228,59.4750848 Z M48.4167724,59.4750848 L59.5639448,69.5120439 L58.2256835,70.9983336 L47.0785112,60.9613745 L48.4167724,59.4750848 Z M304.038626,46.0785112 L305.524915,47.4167724 L295.487956,58.5639448 L294.001666,57.2256835 L304.038626,46.0785112 Z M61.9613745,46.0785112 L71.9983336,57.2256835 L70.5120439,58.5639448 L60.4750848,47.4167724 L61.9613745,46.0785112 Z M289.167899,34.1711218 L290.785933,35.3466923 L281.969154,47.4819472 L280.35112,46.3063767 L289.167899,34.1711218 Z M76.8321011,34.1711218 L85.6488799,46.3063767 L84.0308459,47.4819472 L75.2140671,35.3466923 L76.8321011,34.1711218 Z M273.133975,23.8833765 L274.866025,24.8833765 L267.366025,37.8737576 L265.633975,36.8737576 L273.133975,23.8833765 Z M92.8660254,23.8833765 L100.366025,36.8737576 L98.6339746,37.8737576 L91.1339746,24.8833765 L92.8660254,23.8833765 Z M256.112524,15.3279901 L257.939614,16.1414634 L251.838565,29.8446452 L250.011474,29.0311719 L256.112524,15.3279901 Z M109.887476,15.3279901 L115.988526,29.0311719 L114.161435,29.8446452 L108.060386,16.1414634 L109.887476,15.3279901 Z M238.290036,8.59869704 L240.192149,9.21673103 L235.556895,23.4825788 L233.654782,22.8645448 L238.290036,8.59869704 Z M127.709964,8.59869704 L132.345218,22.8645448 L130.443105,23.4825788 L125.807851,9.21673103 L127.709964,8.59869704 Z M219.86178,3.76922498 L221.818075,4.18504836 L218.6994,18.8572624 L216.743105,18.441439 L219.86178,3.76922498 Z M146.13822,3.76922498 L149.256895,18.441439 L147.3006,18.8572624 L144.181925,4.18504836 L146.13822,3.76922498 Z M201.029658,0.89248658 L203.018702,1.10154351 L201.450775,16.0193719 L199.461731,15.810315 L201.029658,0.89248658 Z M164.970342,0.89248658 L166.538269,15.810315 L164.549225,16.0193719 L162.981298,1.10154351 L164.970342,0.89248658 Z M184,0 L184,15 L182,15 L182,0 L184,0 Z" id="形状结合" fill="#FFFFFF"></path>
            <path d="M186,328.742268 L186,364 L180,364 L180,328.742268 L186,328.742268 Z M258.96921,307.582532 L276.598076,338.116623 L271.401924,341.116623 L253.773058,310.582532 L258.96921,307.582532 Z M107.03079,307.582532 L112.226942,310.582532 L94.5980762,341.116623 L89.4019238,338.116623 L107.03079,307.582532 Z M311.582532,252.773058 L342.116623,270.401924 L339.116623,275.598076 L308.582532,257.96921 L311.582532,252.773058 Z M54.4174681,252.773058 L57.4174681,257.96921 L26.8833765,275.598076 L23.8833765,270.401924 L54.4174681,252.773058 Z M365,179 L365,185 L329.742268,185 L329.742268,179 L365,179 Z M36.257732,179 L36.257732,185 L1,185 L1,179 L36.257732,179 Z M339.116623,88.4019238 L342.116623,93.5980762 L311.582532,111.226942 L308.582532,106.03079 L339.116623,88.4019238 Z M26.8833765,88.4019238 L57.4174681,106.03079 L54.4174681,111.226942 L23.8833765,93.5980762 L26.8833765,88.4019238 Z M271.401924,22.8833765 L276.598076,25.8833765 L258.96921,56.4174681 L253.773058,53.4174681 L271.401924,22.8833765 Z M94.5980762,22.8833765 L112.226942,53.4174681 L107.03079,56.4174681 L89.4019238,25.8833765 L94.5980762,22.8833765 Z M186,0 L186,35.257732 L180,35.257732 L180,0 L186,0 Z" id="形状结合" fill="#FFFFFF"></path>
        </g>
    </g>
</svg>