<?xml version="1.0" encoding="UTF-8"?>
<svg width="51px" height="50px" viewBox="0 0 51 50" version="1.1" xmlns="http://www.w3.org/2000/svg" xmlns:xlink="http://www.w3.org/1999/xlink">
    <title>scene_leisure</title>
    <g id="scene_leisure" stroke="none" stroke-width="1" fill="none" fill-rule="evenodd" transform="translate(0.000000, 0.000000)">
        <g id="Group-2备份">
            <path d="M34.9863091,17.5000001 C36.0984399,17.5000001 37,18.4099985 37,19.550568 L37,28.3906087 C37,28.5281937 36.9867181,28.6626138 36.9613843,28.7926074 C36.4255326,33.6616059 30.3795419,37.5000001 23,37.5000001 C15.6227172,37.5000001 9.57816922,33.6639556 9.03910933,28.7970787 C9.01345645,28.6658561 9,28.5299531 9,28.3906087 L9,19.550568 C9,18.4180706 9.89989752,17.5000001 11.0136909,17.5000001 L34.9863091,17.5000001 Z M41,21.5000001 C43.2079654,21.5000001 45,23.289668 45,25.5000001 C45,27.7103322 43.2079654,29.5000001 41,29.5000001 C38.7920346,29.5000001 37,27.7103322 37,25.5000001 C37,23.289668 38.7920346,21.5000001 41,21.5000001 Z M41,23.5017288 C39.8969715,23.5017288 39.0017287,24.3957893 39.0017287,25.5000001 C39.0017287,26.6042109 39.8969715,27.4982714 41,27.4982714 C42.1030285,27.4982714 42.9982713,26.6042109 42.9982713,25.5000001 C42.9982713,24.3957893 42.1030285,23.5017288 41,23.5017288 Z M12.5,39.5 L33.5,39.5 C34.3284271,39.5 35,40.1715729 35,41 C35,41.8284271 34.3284271,42.5 33.5,42.5 L12.5,42.5 C11.6715729,42.5 11,41.8284271 11,41 C11,40.1715729 11.6715729,39.5 12.5,39.5 Z" id="Combined-Shape" fill="#F7FAFE" fill-rule="nonzero"></path>
            <polygon id="路径" fill="#F7FAFE" fill-rule="nonzero" opacity="0.300000012" points="15 14.5000001 15 7.50000012 12 7.50000012 12 14.5000001"></polygon>
            <polygon id="路径" fill="#F7FAFE" fill-rule="nonzero" opacity="0.300000012" points="24.5 14.5000001 24.5 7.50000012 21.5 7.50000012 21.5 14.5000001"></polygon>
            <polygon id="路径" fill="#F7FAFE" fill-rule="nonzero" opacity="0.300000012" points="34 14.5000001 34 7.50000012 31 7.50000012 31 14.5000001"></polygon>
            <rect id="矩形" x="0" y="0" width="50" height="50"></rect>
        </g>
    </g>
</svg>