<?xml version="1.0" encoding="UTF-8"?>
<svg width="51px" height="50px" viewBox="0 0 51 50" version="1.1" xmlns="http://www.w3.org/2000/svg" xmlns:xlink="http://www.w3.org/1999/xlink">
    <title>scene_entainment</title>
    <defs>
        <filter id="filter-1">
            <feColorMatrix in="SourceGraphic" type="matrix" values="0 0 0 0 0.968627 0 0 0 0 0.980392 0 0 0 0 0.996078 0 0 0 1.000000 0"></feColorMatrix>
        </filter>
    </defs>
    <g id="scene_entainment" stroke="none" stroke-width="1" fill="none" fill-rule="evenodd" transform="translate(0.000000, 0.000000)">
        <g id="编组备份-2">
            <g id="编组备份">
                <path d="M36.0202846,10 C38.4827744,10 40.5786393,11.7929362 40.95997,14.2257212 L40.95997,14.2257212 L43.9160097,33.0844404 C43.964094,33.3912048 43.9882454,33.7012446 43.9882454,34.0117546 C43.9882454,37.3189712 41.3072166,40 38,40 L38,40 L32.3384666,40 C31.4866238,40 30.6749447,39.6378649 30.1059304,39.0039416 L30.1059304,39.0039416 L26.2980232,34.761657 C26.1083518,34.5503493 25.8377921,34.4296375 25.5538445,34.4296375 L25.5538445,34.4296375 L24.4461555,34.4296375 C24.1622079,34.4296375 23.8916482,34.5503493 23.7019768,34.761657 L23.7019768,34.761657 L19.8940696,39.0039416 C19.3250553,39.6378649 18.5133762,40 17.6615334,40 L17.6615334,40 L11.6267766,40 C11.428344,40 11.2300336,39.9901561 11.0325765,39.9705047 C7.73515778,39.642337 5.32810422,36.7032186 5.65627187,33.4057999 L5.65627187,33.4057999 L7.53734503,14.5048333 C7.79182727,11.9478033 9.94310351,10 12.5127656,10 L12.5127656,10 Z M17,16 C15.8954305,16 15,16.8954305 15,18 L15,18 L14.9993312,20 L13,20 C11.9456382,20 11.0818349,20.8158778 11.0054857,21.8507377 L11,22 C11,23.1045695 11.8954305,24 13,24 L13,24 L14.9993312,24 L15,26 C15,27.0543618 15.8158778,27.9181651 16.8507377,27.9945143 L17,28 C18.1045695,28 19,27.1045695 19,26 L19,26 L18.9993312,24 L21,24 C22.0543618,24 22.9181651,23.1841222 22.9945143,22.1492623 L23,22 C23,20.8954305 22.1045695,20 21,20 L21,20 L18.9993312,20 L19,18 C19,16.9456382 18.1841222,16.0818349 17.1492623,16.0054857 Z M33,24 C31.8954305,24 31,24.8954305 31,26 C31,27.1045695 31.8954305,28 33,28 C34.1045695,28 35,27.1045695 35,26 C35,24.8954305 34.1045695,24 33,24 Z M36.5,16 C35.1192881,16 34,17.1192881 34,18.5 C34,19.8807119 35.1192881,21 36.5,21 C37.8807119,21 39,19.8807119 39,18.5 C39,17.1192881 37.8807119,16 36.5,16 Z" id="形状结合" fill="#F7FAFE"></path>
                <rect id="矩形" x="0" y="0" width="50" height="50"></rect>
            </g>
            <g filter="url(#filter-1)" id="编组-2" opacity="0.300000012">
                <g transform="translate(11.000000, 16.000000)">
                    <rect id="矩形" fill="#000000" x="0" y="4" width="12" height="4" rx="2"></rect>
                    <rect id="矩形" fill="#000000" x="4" y="0" width="4" height="12" rx="2"></rect>
                    <circle id="椭圆形" fill="#000000" cx="22" cy="10" r="2"></circle>
                    <circle id="椭圆形" fill="#000000" cx="25.5" cy="2.5" r="2.5"></circle>
                </g>
            </g>
        </g>
    </g>
</svg>