<?xml version="1.0" encoding="UTF-8"?>
<svg width="51px" height="50px" viewBox="0 0 51 50" version="1.1" xmlns="http://www.w3.org/2000/svg" xmlns:xlink="http://www.w3.org/1999/xlink">
    <title>scene_meeting</title>
    <g id="scene_meeting" stroke="none" stroke-width="1" fill="none" fill-rule="evenodd" transform="translate(0.000000, 0.000000)">
        <g id="编组备份-2">
            <circle id="椭圆形" fill="#F7FAFE" cx="12" cy="11.5" r="3.5"></circle>
            <circle id="椭圆形备份" fill="#F7FAFE" cx="25" cy="11.5" r="3.5"></circle>
            <circle id="椭圆形备份-2" fill="#F7FAFE" cx="38" cy="11.5" r="3.5"></circle>
            <path d="M38,18 C39.9329966,18 41.5,19.5670034 41.5,21.5 L41.5,21.5 L41.5,29 C41.5,31.7614237 39.2614237,34 36.5,34 L36.5,34 L32,34 L32,42.5 C32,43.3284271 31.3284271,44 30.5,44 C29.6715729,44 29,43.3284271 29,42.5 L29,42.5 L29,34 L29.0050927,33.8237272 C29.0963391,32.24892 30.4023191,31 32,31 L32,31 L34.5,31 L34.5,28 L15.5,28 L15.5,31 L18,31 C19.5976809,31 20.9036609,32.24892 20.9949073,33.8237272 L21,34 L21,42.5 C21,43.3284271 20.3284271,44 19.5,44 C18.6715729,44 18,43.3284271 18,42.5 L18,34 L13.5,34 C10.7385763,34 8.5,31.7614237 8.5,29 L8.5,21.5 C8.5,19.5670034 10.0670034,18 12,18 C13.9329966,18 15.5,19.5670034 15.5,21.5 L15.5,25 L20,25 L20,23 C20,20.2385763 22.2385763,18 25,18 C27.7614237,18 30,20.2385763 30,23 L30,25 L34.5,25 L34.5,21.5 C34.5,19.6314366 35.9642776,18.1048736 37.8079648,18.0051789 Z" id="形状结合" fill="#F7FAFE"></path>
            <rect id="矩形" x="0" y="0" width="50" height="50"></rect>
        </g>
    </g>
</svg>