<?xml version="1.0" encoding="UTF-8"?>
<svg width="51px" height="50px" viewBox="0 0 51 50" version="1.1" xmlns="http://www.w3.org/2000/svg" xmlns:xlink="http://www.w3.org/1999/xlink">
    <title>scene_gohome</title>
    <g id="scene_gohome" stroke="none" stroke-width="1" fill="none" fill-rule="evenodd" transform="translate(0.000000, 0.000000)">
        <g id="编组备份-2">
            <g id="编组备份">
                <path d="M26.4884168,8.85052389 L40.4884168,16.8505239 C41.4231418,17.3846525 42,18.3786828 42,19.4552533 L42,39 C42,40.6568542 40.6568542,42 39,42 L31,41.9992533 L31,32 C31,30.4023191 29.75108,29.0963391 28.1762728,29.0050927 L28,29 L23,29 C21.3431458,29 20,30.3431458 20,32 L20,32 L20,41.9992533 L11,42 C9.34314575,42 8,40.6568542 8,39 L8,19.4552533 C8,18.3786828 8.57685819,17.3846525 9.51158318,16.8505239 L23.5115832,8.85052389 C24.4338812,8.32349646 25.5661188,8.32349646 26.4884168,8.85052389 Z" id="形状结合" fill="#F7FAFE"></path>
                <rect id="矩形" x="0" y="0" width="50" height="50"></rect>
            </g>
            <path d="M23,29 L28,29 C29.6568542,29 31,30.3431458 31,32 L31,42 L31,42 L20,42 L20,32 C20,30.3431458 21.3431458,29 23,29 Z" id="矩形" fill="#F7FAFE" opacity="0.300000012"></path>
            <path d="M24.5,31 L26.5,31 C27.8807119,31 29,32.1192881 29,33.5 L29,42 L29,42 L22,42 L22,33.5 C22,32.1192881 23.1192881,31 24.5,31 Z" id="矩形" fill="#F7FAFE"></path>
        </g>
    </g>
</svg>