<?xml version="1.0" encoding="UTF-8"?>
<svg width="51px" height="50px" viewBox="0 0 51 50" version="1.1" xmlns="http://www.w3.org/2000/svg" xmlns:xlink="http://www.w3.org/1999/xlink">
    <title>scene_common</title>
    <g id="scene_common" stroke="none" stroke-width="1" fill="none" fill-rule="evenodd" transform="translate(0.000000, 0.000000)">
        <g id="Group">
            <path d="M25.0000083,5 C27.9391714,5 30.4251419,8.11400389 31.9735975,12.9196863 C36.9105185,11.858604 40.8508184,12.4544084 42.3205164,15 C43.7902599,17.5456704 42.3359563,21.2561231 38.9475415,25.0003862 C42.3362149,28.7445367 43.7901292,32.454556 42.3205164,35 C40.8508184,37.5455916 36.9105185,38.141396 31.9738985,37.0792097 C30.4251419,41.8859961 27.9391714,45 25.0000083,45 C22.0608453,45 19.5748747,41.8859961 18.0264191,37.0803137 C13.0894981,38.141396 9.14919827,37.5455916 7.67950026,35 C6.20988748,32.454556 7.66380177,28.7445367 11.0515713,25.0006126 C7.66406038,21.2561231 6.20975679,17.5456704 7.67950026,15 C9.14919827,12.4544084 13.0894981,11.858604 18.0261182,12.9207903 C19.5748747,8.11400389 22.0608453,5 25.0000083,5 Z M25.0005658,34.7372727 L24.9605309,34.7546076 C23.3984847,35.44943 21.8644595,36.0220043 20.3917456,36.4657415 C21.586773,39.707114 23.252022,41.7241459 25.0000083,41.7241459 C26.7479947,41.7241459 28.4132437,39.707114 29.6087048,36.4660598 C28.1233276,36.0183195 26.5760504,35.4399117 25.0005658,34.7372727 Z M12.7663842,26.742121 L12.7009698,26.8200669 C10.5388508,29.4457133 9.65107403,31.8631578 10.5164731,33.362073 C11.3904134,34.875782 13.9695797,35.3094531 17.3738398,34.7243843 C17.0196361,33.2147274 16.7468233,31.5851314 16.5675436,29.8689473 C15.1709996,28.8552568 13.8963854,27.804445 12.7663842,26.742121 Z M37.2339838,26.7414548 L36.9790536,26.9790026 C35.9133169,27.9605793 34.7251433,28.9306243 33.4327049,29.8683768 C33.2531933,31.5851314 32.9803806,33.2147274 32.6252571,34.7247779 C36.0304369,35.3094531 38.6096032,34.875782 39.4835436,33.362073 C40.3575726,31.8482103 39.4432853,29.3974074 37.2339838,26.7414548 Z M30.8720856,31.5961249 L30.7780167,31.6548998 C30.3087274,31.947861 29.8293525,32.2358217 29.3405471,32.5180336 C28.8190211,32.8191368 28.2971953,33.1076708 27.7762547,33.3834011 C28.6469157,33.7050356 29.4958291,33.9785443 30.3140168,34.2034012 C30.5279051,33.3820426 30.715432,32.5103202 30.8720856,31.5961249 Z M19.128611,31.5964509 L19.1771271,31.8762058 C19.3233527,32.6886885 19.4941006,33.4662711 19.6863966,34.2028602 C20.5041875,33.9785443 21.3531009,33.7050356 22.2233726,33.3835276 C21.7028214,33.1076708 21.1809956,32.8191368 20.6594696,32.5180336 C20.1381936,32.2170748 19.6276425,31.909578 19.128611,31.5964509 Z M25.0004014,17.7759942 L24.6997777,17.9169917 C23.7390215,18.3737084 22.7664039,18.8834355 21.7930571,19.4453975 C20.7181956,20.0659691 19.6989435,20.71762 18.7437006,21.3878895 C18.6408264,22.550325 18.5861058,23.7588527 18.5861058,25 C18.5861058,26.2411473 18.6408264,27.449675 18.743676,28.6120779 C19.6989435,29.28238 20.7181956,29.9340309 21.7930571,30.5546025 C22.8681321,31.1752974 23.9423176,31.7322681 25.0006134,32.22447 C26.0583744,31.7319179 27.1322225,31.1751022 28.2069596,30.5546025 C29.2818211,29.9340309 30.3010732,29.28238 31.256316,28.6121105 C31.3591903,27.449675 31.4139108,26.2411473 31.4139108,25 C31.4139108,23.7588527 31.3591903,22.550325 31.2563406,21.3879221 C30.3010732,20.71762 29.2818211,20.0659691 28.2069596,19.4453975 C27.1322225,18.8248978 26.0583744,18.2680821 25.0004014,17.7759942 Z M33.6491598,23.213277 L33.6544048,23.3850065 C33.6720967,23.9178693 33.6810858,24.4564807 33.6810858,25 C33.6810858,25.6024346 33.6700423,26.1988396 33.6483452,26.7880704 C34.3624183,26.1940363 35.02347,25.5958529 35.6270724,24.9999496 C35.02347,24.4041471 34.3624183,23.8059637 33.6491598,23.213277 Z M16.3516715,23.2119296 L16.265582,23.2843706 C15.5848466,23.853778 14.9524211,24.427965 14.3729442,25.0000504 C14.9765467,25.5958529 15.6375983,26.1940363 16.3508568,26.786723 C16.3299743,26.1988396 16.3189309,25.6024346 16.3189309,25 C16.3189309,24.3975654 16.3299743,23.8011604 16.3516715,23.2119296 Z M10.5164731,16.637927 C9.64244407,18.1517897 10.5567313,20.6025926 12.7660329,23.2585452 C13.8963854,22.195555 15.1709996,21.1447432 16.5673118,20.1316232 C16.7468233,18.4148686 17.0196361,16.7852726 17.3747595,15.2752221 C13.9695797,14.6905469 11.3904134,15.124218 10.5164731,16.637927 Z M32.7257518,15.2587536 L32.6252571,15.2752221 C32.9803806,16.7852726 33.2531933,18.4148686 33.432473,20.1310527 C34.8290171,21.1447432 36.1036313,22.195555 37.2336325,23.257879 C39.4432853,20.6025926 40.3575726,18.1517897 39.4835436,16.637927 C38.6181445,15.1390119 36.0806878,14.6991268 32.7257518,15.2587536 Z M19.6859999,15.7965988 L19.6066015,16.1101302 C19.4252989,16.8385258 19.2648266,17.6049831 19.1279311,18.4038751 C19.6276425,18.090422 20.1381936,17.7829252 20.6594696,17.4819664 C21.1809956,17.1808632 21.7028214,16.8923292 22.2237619,16.6165989 C21.3531009,16.2949644 20.5041875,16.0214557 19.6859999,15.7965988 Z M30.3136201,15.7971398 L30.2329189,15.8190178 C29.4397794,16.0395589 28.6181977,16.3055738 27.7766441,16.6164724 C28.2971953,16.8923292 28.8190211,17.1808632 29.3405471,17.4819664 C29.8618231,17.7829252 30.3723741,18.090422 30.8714056,18.4035491 C30.715432,17.4896798 30.5279051,16.6179574 30.3136201,15.7971398 Z M25.0000083,8.27585407 C23.252022,8.27585407 21.586773,10.292886 20.3913119,13.5339402 C21.8770027,13.981775 23.4246198,14.5603326 25.0004489,15.2631725 C26.5760504,14.5600883 28.1233276,13.9816805 29.6082711,13.5342585 C28.4132437,10.292886 26.7479947,8.27585407 25.0000083,8.27585407 Z" id="Combined-Shape" fill="#F7FAFE" fill-rule="nonzero"></path>
            <path d="M25,28 C23.3431458,28 22,26.6568542 22,25 C22,23.3431458 23.3431458,22 25,22 C26.6568542,22 28,23.3431458 28,25 C28,26.6568542 26.6568542,28 25,28 Z" id="Oval-2" fill="#F7FAFE" fill-rule="nonzero" opacity="0.300000012"></path>
            <rect id="矩形" x="0" y="0" width="50" height="50"></rect>
        </g>
    </g>
</svg>