<?xml version="1.0" encoding="UTF-8"?>
<svg width="51px" height="50px" viewBox="0 0 51 50" version="1.1" xmlns="http://www.w3.org/2000/svg" xmlns:xlink="http://www.w3.org/1999/xlink">
    <title>scene_movie</title>
    <g id="scene_movie" stroke="none" stroke-width="1" fill="none" fill-rule="evenodd" transform="translate(0.000000, 0.000000)">
        <g id="编组">
            <path d="M25,6 C35.4934102,6 44,14.5065898 44,25 C44,35.4934102 35.4934102,44 25,44 C14.5065898,44 6,35.4934102 6,25 C6,14.5065898 14.5065898,6 25,6 Z M25,29 C22.2385763,29 20,31.2385763 20,34 C20,36.7614237 22.2385763,39 25,39 C27.7614237,39 30,36.7614237 30,34 C30,31.2385763 27.7614237,29 25,29 Z M15,20 C12.2385763,20 10,22.2385763 10,25 C10,27.7614237 12.2385763,30 15,30 C17.7614237,30 20,27.7614237 20,25 C20,22.2385763 17.7614237,20 15,20 Z M35,20 C32.2385763,20 30,22.2385763 30,25 C30,27.7614237 32.2385763,30 35,30 C37.7614237,30 40,27.7614237 40,25 C40,22.2385763 37.7614237,20 35,20 Z M25,23 C23.8954305,23 23,23.8954305 23,25 C23,26.1045695 23.8954305,27 25,27 C26.1045695,27 27,26.1045695 27,25 C27,23.8954305 26.1045695,23 25,23 Z M25,11 C22.2385763,11 20,13.2385763 20,16 C20,18.7614237 22.2385763,21 25,21 C27.7614237,21 30,18.7614237 30,16 C30,13.2385763 27.7614237,11 25,11 Z" id="形状结合" fill="#F7FAFE"></path>
            <rect id="矩形" fill="#F7FAFE" opacity="0.300000012" x="23" y="41" width="22" height="3"></rect>
            <rect id="矩形" x="0" y="0" width="50" height="50"></rect>
        </g>
    </g>
</svg>