<?xml version="1.0" encoding="UTF-8"?>
<svg width="51px" height="50px" viewBox="0 0 51 50" version="1.1" xmlns="http://www.w3.org/2000/svg" xmlns:xlink="http://www.w3.org/1999/xlink">
    <title>scene_get_up</title>
    <g id="scene_get_up" stroke="none" stroke-width="1" fill="none" fill-rule="evenodd" transform="translate(0.000000, 0.000000)">
        <g id="编组备份">
            <rect id="矩形" fill="#F7FAFE" opacity="0.300000012" x="7" y="39" width="36" height="3"></rect>
            <path d="M38.7157007,37.0821064 C39.5412704,35.2231392 40,33.1651406 40,31 C40,22.7157288 33.2842712,16 25,16 C16.7157288,16 10,22.7157288 10,31 C10,33.1651027 10.4587135,35.2230671 11.284256,37.0820087 C16.1561853,37.0903332 33.5953175,37.0688849 38.7157007,37.0821064 Z" id="椭圆形" fill="#F7FAFE"></path>
            <path d="M25.7071068,5.29083501 L27.8284271,7.41215535 C28.2189514,7.80267964 28.2189514,8.43584462 27.8284271,8.82636891 C27.4379028,9.21689321 26.8047379,9.21689321 26.4142136,8.82636891 L25.9996797,8.41167489 L26,13 C26,13.5522847 25.5522847,14 25,14 C24.4477153,14 24,13.5522847 24,13 L23.9996797,8.41167489 L23.5857864,8.82636891 C23.2253025,9.18685288 22.6580714,9.21458241 22.2657802,8.90955752 L22.1715729,8.82636891 C21.7810486,8.43584462 21.7810486,7.80267964 22.1715729,7.41215535 L22.1715729,7.41215535 L24.2928932,5.29083501 C24.4731352,5.11059303 24.705064,5.01353965 24.9409686,4.99967489 L25.0590314,4.99967489 C25.294936,5.01353965 25.5268648,5.11059303 25.7071068,5.29083501 Z" id="形状结合" fill="#F7FAFE" opacity="0.300000012"></path>
            <rect id="矩形" fill="#F7FAFE" opacity="0.300000012" transform="translate(37.049598, 14.915152) rotate(36.000000) translate(-37.049598, -14.915152) " x="36.0495977" y="11.9151516" width="2" height="6" rx="1"></rect>
            <rect id="矩形" fill="#F7FAFE" opacity="0.300000012" transform="translate(44.496659, 25.165152) rotate(72.000000) translate(-44.496659, -25.165152) " x="43.4966586" y="22.1651516" width="2" height="6" rx="1"></rect>
            <rect id="矩形" fill="#F7FAFE" opacity="0.300000012" transform="translate(5.503341, 25.165152) rotate(288.000000) translate(-5.503341, -25.165152) " x="4.50334142" y="22.1651516" width="2" height="6" rx="1"></rect>
            <rect id="矩形" fill="#F7FAFE" opacity="0.300000012" transform="translate(12.950402, 14.915152) rotate(324.000000) translate(-12.950402, -14.915152) " x="11.9504023" y="11.9151516" width="2" height="6" rx="1"></rect>
            <rect id="矩形" x="0" y="0" width="50" height="50"></rect>
        </g>
    </g>
</svg>