<?xml version="1.0" encoding="UTF-8"?>
<svg width="51px" height="50px" viewBox="0 0 51 50" version="1.1" xmlns="http://www.w3.org/2000/svg" xmlns:xlink="http://www.w3.org/1999/xlink">
    <title>scene_leave</title>
    <g id="scene_leave" stroke="none" stroke-width="1" fill="none" fill-rule="evenodd" transform="translate(0.000000, 0.000000)">
        <g id="编组">
            <rect id="矩形" fill="#F7FAFE" opacity="0.300000012" x="8" y="10" width="18" height="32"></rect>
            <path d="M20.4216757,3.52232222 L40.4216757,7.83604771 C41.3425706,8.03467208 42,8.84901819 42,9.7910898 L42,40.2089102 C42,41.1509818 41.3425706,41.9653279 40.4216757,42.1639523 L20.4216757,46.4776778 C19.3419358,46.7105629 18.277843,46.0240514 18.0449579,44.9443114 C18.0150707,44.8057433 18,44.6643903 18,44.5226357 L18,5.47736431 C18,4.37279481 18.8954305,3.47736431 20,3.47736431 C20.1417546,3.47736431 20.2831076,3.49243497 20.4216757,3.52232222 Z" id="矩形" fill="#F7FAFE"></path>
            <rect id="矩形" fill="#000000" transform="translate(25.525616, 23.940719) rotate(-45.000000) translate(-25.525616, -23.940719) " x="24.5256156" y="21.4414108" width="2" height="4.99861604" rx="1"></rect>
            <rect id="矩形" fill="#000000" transform="translate(25.525616, 26.059281) rotate(45.000000) translate(-25.525616, -26.059281) " x="24.5256156" y="23.5599732" width="2" height="4.99861604" rx="1"></rect>
            <rect id="矩形" x="0" y="0" width="50" height="50"></rect>
        </g>
    </g>
</svg>