<?xml version="1.0" encoding="UTF-8"?>
<svg width="51px" height="50px" viewBox="0 0 51 50" version="1.1" xmlns="http://www.w3.org/2000/svg" xmlns:xlink="http://www.w3.org/1999/xlink">
    <title>scene_lights_on</title>
    <g id="scene_lights_on" stroke="none" stroke-width="1" fill="none" fill-rule="evenodd" transform="translate(0.000000, 0.000000)">
        <g id="编组">
            <rect id="矩形" fill="#F7FAFE" opacity="0.300000012" x="16" y="36" width="18" height="3"></rect>
            <rect id="矩形备份" fill="#F7FAFE" opacity="0.300000012" x="20" y="40.5" width="10" height="3"></rect>
            <path d="M38.7157007,34.0821064 C39.5412704,32.2231392 40,30.1651406 40,28 C40,19.7157288 33.2842712,13 25,13 C16.7157288,13 10,19.7157288 10,28 C10,30.1651027 10.4587135,32.2230671 11.284256,34.0820087 C16.1561853,34.0903332 33.5953175,34.0688849 38.7157007,34.0821064 Z" id="椭圆形" fill="#F7FAFE"></path>
            <rect id="矩形" fill="#F7FAFE" opacity="0.300000012" x="24" y="5" width="2" height="6" rx="1"></rect>
            <rect id="矩形" fill="#F7FAFE" opacity="0.300000012" transform="translate(37.049598, 11.915152) rotate(36.000000) translate(-37.049598, -11.915152) " x="36.0495977" y="8.91515162" width="2" height="6" rx="1"></rect>
            <rect id="矩形" fill="#F7FAFE" opacity="0.300000012" transform="translate(44.496659, 22.165152) rotate(72.000000) translate(-44.496659, -22.165152) " x="43.4966586" y="19.1651516" width="2" height="6" rx="1"></rect>
            <rect id="矩形" fill="#F7FAFE" opacity="0.300000012" transform="translate(5.503341, 22.165152) rotate(288.000000) translate(-5.503341, -22.165152) " x="4.50334142" y="19.1651516" width="2" height="6" rx="1"></rect>
            <rect id="矩形" fill="#F7FAFE" opacity="0.300000012" transform="translate(12.950402, 11.915152) rotate(324.000000) translate(-12.950402, -11.915152) " x="11.9504023" y="8.91515162" width="2" height="6" rx="1"></rect>
            <rect id="矩形" x="0" y="0" width="50" height="50"></rect>
        </g>
    </g>
</svg>