<?xml version="1.0" encoding="UTF-8"?>
<svg width="58px" height="24px" viewBox="0 0 58 24" version="1.1" xmlns="http://www.w3.org/2000/svg" xmlns:xlink="http://www.w3.org/1999/xlink">
    <title>dts</title>
    <g id="MixPad-X" stroke="none" stroke-width="1" fill="none" fill-rule="evenodd">
        <g id="3-1.音乐_环境音乐_dts_sel" transform="translate(-1569.000000, -48.000000)" fill="#CDA763">
            <g id="编组-5备份" transform="translate(1548.000000, 32.000000)">
                <path d="M44.3557047,16 L44.3557047,24.5913349 L48.6375839,24.5913349 L48.6375839,21.2099063 L57.9798658,17.1715457 L57.9798658,24.5913349 L61.4832215,24.5913349 L61.4832215,26.543911 C61.4832215,26.9752622 61.1346646,27.3249415 60.704698,27.3249415 L57.9798658,27.3249415 L57.9798658,35.1352459 C58.5462368,36.4850589 59.8555936,37.4301378 61.3769686,37.4765481 L61.4944067,37.4783372 L65.8297198,37.4783372 C66.8507056,37.4783372 67.6928544,36.6882907 67.7702526,35.6764824 L67.7749196,35.5916639 L67.7900403,35.1399321 L67.789405,35.1352459 C67.7665473,34.8992623 67.666658,34.6876335 67.4897369,34.5003595 L67.3624968,34.3734332 L67.3624968,34.3734332 L67.1656265,34.1614376 L67.1656265,34.1614376 L66.647726,33.5806177 L66.647726,33.5806177 L65.7070646,32.5039045 L65.7070646,32.5039045 L63.939839,30.4579213 C63.3806678,29.8347376 63.0402685,29.010235 63.0402685,28.1059719 C63.0402685,26.1995536 64.5532563,24.6476505 66.4403288,24.5928333 L66.5436242,24.5913349 L79,24.5913349 L79,26.543911 C79,26.9752622 78.6514432,27.3249415 78.2214765,27.3249415 L75.38744,27.3249415 C74.9027759,27.4121983 74.5813361,27.6386365 74.4231206,28.0042561 C74.0778214,28.8022068 74.2462777,29.811298 74.7943547,30.4714166 C75.0778207,30.8128307 75.3746408,31.116243 75.6631317,31.382134 L75.8350533,31.5371699 C75.8634825,31.5622601 75.891785,31.586976 75.9199392,31.6113182 L76.0869107,31.7528897 L76.0869107,31.7528897 L76.2492813,31.8855137 L76.2492813,31.8855137 L76.40601,32.0092133 L76.40601,32.0092133 L76.5560562,32.1240116 L76.5560562,32.1240116 L76.7663188,32.2795694 L76.7663188,32.2795694 L77.3318392,32.6802991 L77.3318392,32.6802991 L77.4145603,32.7436641 C77.4361154,32.7615255 77.4514566,32.7761312 77.4599986,32.7874939 C77.4635869,32.7922672 77.4631987,32.7977827 77.458834,32.8040403 C78.3953003,33.517116 79,34.6458512 79,35.9162763 C79,38.0364772 77.3157926,39.7620436 75.2163388,39.8199283 L75.1073826,39.8214286 L54.0872483,39.8214286 C51.0774818,39.8214286 48.6375839,37.3736739 48.6375839,34.3542155 L48.6375839,27.3249415 L44.3557047,27.3249415 L44.3557047,37.4783372 C44.3557047,38.7723908 43.3100342,39.8214286 42.0201342,39.8214286 L28.3959732,39.8214286 C24.2938603,39.7155119 21,36.3468466 21,32.2063817 C21,28.0659168 24.2938603,24.6972516 28.3961861,24.5937841 L28.3959732,24.5913349 L34.6241611,24.5913349 L34.6241611,18.3430913 C34.6241611,17.0490377 35.6698316,16 36.9597315,16 L44.3557047,16 Z M34.4642857,27.3928571 L32.4725275,27.3928571 L32.4726831,27.414145 C30.6800455,27.6096142 29.2857143,29.1632475 29.2857143,32.5714286 C29.2857143,35.9237378 30.6347044,37.4818058 32.3848461,37.7180017 L32.4726831,37.7287121 L32.4725275,37.75 L34.4642857,37.75 L34.4642857,27.3928571 Z" id="dts"></path>
            </g>
        </g>
    </g>
</svg>