<?xml version="1.0" encoding="UTF-8"?>
<svg width="60px" height="20px" viewBox="0 0 60 20" version="1.1" xmlns="http://www.w3.org/2000/svg" xmlns:xlink="http://www.w3.org/1999/xlink">
    <title>形状结合</title>
    <defs>
        <linearGradient x1="100%" y1="100%" x2="100%" y2="0%" id="linearGradient-1">
            <stop stop-color="#E1C391" offset="0%"></stop>
            <stop stop-color="#FFE7D2" offset="100%"></stop>
        </linearGradient>
    </defs>
    <g id="Mixpad-精灵" stroke="none" stroke-width="1" fill="none" fill-rule="evenodd">
        <g id="5.音乐会员-未开通" transform="translate(-33.000000, -100.000000)" fill="url(#linearGradient-1)" fill-rule="nonzero">
            <g id="编组-3" transform="translate(15.000000, 76.000000)">
                <g id="编组" transform="translate(18.344780, 24.344780)">
                    <path d="M16.4841487,1.20399751 C17.1541406,0.0496564528 18.6330547,-0.342986097 19.7873957,0.327005825 C20.9417368,0.996997748 21.3343793,2.47591183 20.6643874,3.63025289 L20.6643874,3.63025289 L12.3285839,17.9921576 C11.382478,19.6222204 9.01751683,19.5900414 8.11611208,17.9348404 L8.11611208,17.9348404 L0.294772711,3.57293561 C-0.343563752,2.4007927 0.0891718741,0.933109175 1.26131479,0.294772711 C2.4334577,-0.343563752 3.90114122,0.0891718741 4.53947768,1.26131479 L4.53947768,1.26131479 L10.3055422,11.849229 Z M28.8968871,0.0461150242 C30.2315752,0.0461150242 31.3135538,1.12809355 31.3135538,2.46278169 L31.3135538,2.46278169 L31.3135538,16.7790348 C31.3135538,18.113723 30.2315752,19.1957015 28.8968871,19.1957015 C27.562199,19.1957015 26.4802204,18.113723 26.4802204,16.7790348 L26.4802204,16.7790348 L26.4802204,2.46278169 C26.4802204,1.12809355 27.562199,0.0461150242 28.8968871,0.0461150242 Z M52.5797895,0.000458529938 C55.9490276,0.000458529938 58.6909347,2.71267572 58.6909347,6.07159923 C58.6909347,9.43052273 55.9490276,12.1427399 52.5797895,12.1427399 L52.5797895,12.1427399 L43.4486712,12.1427399 L43.4486712,16.77903 C43.4486712,18.1137181 42.3666926,19.1956966 41.0320045,19.1956966 C39.6973163,19.1956966 38.6153378,18.1137181 38.6153378,16.77903 L38.6153378,16.77903 L38.6153378,9.72607326 C38.6153378,8.39138511 39.6973163,7.30940659 41.0320045,7.30940659 L41.0320045,7.30940659 L52.5797895,7.30940659 C53.2913597,7.30940659 53.8576014,6.74929628 53.8576014,6.07159923 C53.8576014,5.39390218 53.2913597,4.83379186 52.5797895,4.83379186 L52.5797895,4.83379186 L41.0147442,4.83379186 C39.6800561,4.83379186 38.5980776,3.75181334 38.5980776,2.4171252 C38.5980776,1.08243705 39.6800561,0.000458529938 41.0147442,0.000458529938 L41.0147442,0.000458529938 Z" id="形状结合"></path>
                </g>
            </g>
        </g>
    </g>
</svg>