<?xml version="1.0" encoding="UTF-8"?>
<svg width="52px" height="50px" viewBox="0 0 52 50" version="1.1" xmlns="http://www.w3.org/2000/svg" xmlns:xlink="http://www.w3.org/1999/xlink">
    <title>intercom_broadcast</title>
    <g id="intercom_broadcast" stroke="none" stroke-width="1" fill="none" fill-rule="evenodd">
        <path d="M26,0 C27.1045695,-2.02906125e-16 28,0.8954305 28,2 L28,48 C28,49.1045695 27.1045695,50 26,50 C24.8954305,50 24,49.1045695 24,48 L24,2 C24,0.8954305 24.8954305,2.02906125e-16 26,0 Z M38,8 C39.1045695,8 40,8.8954305 40,10 L40,40 C40,41.1045695 39.1045695,42 38,42 C36.8954305,42 36,41.1045695 36,40 L36,10 C36,8.8954305 36.8954305,8 38,8 Z M14,8 C15.1045695,8 16,8.8954305 16,10 L16,40 C16,41.1045695 15.1045695,42 14,42 C12.8954305,42 12,41.1045695 12,40 L12,10 C12,8.8954305 12.8954305,8 14,8 Z M2,15 C3.1045695,15 4,15.8954305 4,17 L4,33 C4,34.1045695 3.1045695,35 2,35 C0.8954305,35 1.3527075e-16,34.1045695 0,33 L0,17 C-1.3527075e-16,15.8954305 0.8954305,15 2,15 Z M50,15 C51.1045695,15 52,15.8954305 52,17 L52,33 C52,34.1045695 51.1045695,35 50,35 C48.8954305,35 48,34.1045695 48,33 L48,17 C48,15.8954305 48.8954305,15 50,15 Z" id="形状结合" fill="#FFFFFF"></path>
    </g>
</svg>