<?xml version="1.0" encoding="UTF-8"?>
<svg width="40px" height="40px" viewBox="0 0 40 40" version="1.1" xmlns="http://www.w3.org/2000/svg" xmlns:xlink="http://www.w3.org/1999/xlink">
    <title>illumination_switch</title>
    <g id="illumination_switch" stroke="none" stroke-width="1" fill="none" fill-rule="evenodd" opacity="0.800000012">
        <g id="icon_switch" transform="translate(0.000000, -1.000000)">
            <rect id="Rectangle-3" opacity="0" x="0" y="0" width="40" height="40"></rect>
            <path d="M20.1917211,7.2590092 C29.7821037,7.2590092 37.5566449,15.0335504 37.5566449,24.6239329 C37.5566449,30.7445116 34.362932,36.3160984 29.2372177,39.4495438 C28.5304012,39.881634 27.6071349,39.6589243 27.1750447,38.9521078 C26.7429545,38.2452913 26.9656642,37.322025 27.6724807,36.8899348 C31.9156486,34.2960066 34.5566449,29.6886606 34.5566449,24.6239329 C34.5566449,16.6904046 28.1252495,10.2590092 20.1917211,10.2590092 C12.2581928,10.2590092 5.82679739,16.6904046 5.82679739,24.6239329 C5.82679739,29.6432265 8.42026898,34.214864 12.6021216,36.8227315 C13.3050634,37.2610968 13.5195451,38.1863092 13.0811797,38.8892511 C12.6428144,39.592193 11.7176021,39.8066746 11.0146602,39.3683093 C5.96312908,36.2180969 2.82679739,30.6895338 2.82679739,24.6239329 C2.82679739,15.0335504 10.6013386,7.2590092 20.1917211,7.2590092 Z" id="Oval-16" fill="#FFFFFF" fill-rule="nonzero" transform="translate(20.191721, 23.464482) rotate(180.000000) translate(-20.191721, -23.464482) "></path>
            <rect id="Rectangle-7" fill="#FFFFFF" x="18.6917211" y="2.88453159" width="3" height="14.422658" rx="1.5"></rect>
        </g>
    </g>
</svg>