<?xml version="1.0" encoding="UTF-8"?>
<svg width="36px" height="30px" viewBox="0 0 36 30" version="1.1" xmlns="http://www.w3.org/2000/svg" xmlns:xlink="http://www.w3.org/1999/xlink">
    <title>icon_cloudy_s</title>
    <g id="icon_cloudy_s" stroke="none" stroke-width="1" fill="none" fill-rule="evenodd">
        <g id="icon-weather-cloudy-becoming-fine备份-3" transform="translate(-0.800000, 0.000000)">
            <circle id="椭圆形" fill="#FFA522" cx="13.3316043" cy="13.0786851" r="6.36428571"></circle>
            <g id="编组-7" transform="translate(9.238556, 10.729210) rotate(15.000000) translate(-9.238556, -10.729210) translate(3.238556, 1.229210)" fill="#FFA522">
                <rect id="矩形" x="9.86464286" y="0" width="1.485" height="1.90928571"></rect>
                <rect id="矩形" transform="translate(3.781795, 17.432491) rotate(225.000000) translate(-3.781795, -17.432491) " x="3.03929465" y="16.4778482" width="1.485" height="1.90928571"></rect>
                <rect id="矩形" transform="translate(0.954643, 10.607143) rotate(270.000000) translate(-0.954643, -10.607143) " x="0.212142857" y="9.6525" width="1.485" height="1.90928571"></rect>
                <rect id="矩形" transform="translate(3.781795, 3.781795) rotate(315.000000) translate(-3.781795, -3.781795) " x="3.03929465" y="2.82715179" width="1.485" height="1.90928571"></rect>
            </g>
            <path d="M23.7625046,27.6822776 C29.7964128,27.6822776 34.6878618,22.7908286 34.6878618,16.7569204 C34.6878618,10.7230123 29.7964128,5.8315633 23.7625046,5.8315633 C17.7285965,5.8315633 12.8371475,10.7230123 12.8371475,16.7569204 C12.8371475,18.7838114 13.1682189,22.4255971 13.8303618,27.6822776 C18.4560758,27.6822776 21.7667901,27.6822776 23.7625046,27.6822776 Z" id="椭圆形" fill="#CED4D9"></path>
            <circle id="椭圆形备份-2" fill="#F0F8FF" cx="13.6857189" cy="20.8937062" r="6.78857143"></circle>
        </g>
    </g>
</svg>