<?xml version="1.0" encoding="UTF-8"?>
<svg width="36px" height="30px" viewBox="0 0 36 30" version="1.1" xmlns="http://www.w3.org/2000/svg" xmlns:xlink="http://www.w3.org/1999/xlink">
    <title>icon_cloudy_at_night_s</title>
    <g id="icon_cloudy_at_night_s" stroke="none" stroke-width="1" fill="none" fill-rule="evenodd">
        <g id="icon-weather-sunny-day备份-4">
            <path d="M19.5717857,26.6657143 C24.6683877,26.6657143 28.8,22.534102 28.8,17.4375 C28.8,12.340898 24.6683877,8.20928571 19.5717857,8.20928571 C14.4751837,8.20928571 10.3435714,12.340898 10.3435714,17.4375 C10.3435714,19.1495341 10.6232143,22.2256055 11.1825,26.6657143 C15.0896565,26.6657143 17.8860851,26.6657143 19.5717857,26.6657143 Z" id="椭圆形" fill="#CCD4D9"></path>
            <circle id="椭圆形备份-2" fill="#F1F8FF" cx="10.7678571" cy="20.9378571" r="5.72785714"></circle>
            <path d="M27.8521294,5.0666241 C27.8521294,8.04896175 30.2697918,10.4666241 33.2521294,10.4666241 L33.4009632,10.4640393 C32.6899104,12.3394273 30.9643756,13.7157042 28.8943219,13.9229065 C27.836357,11.2558956 25.6701394,9.15059791 22.9643105,8.17417229 C23.1561681,5.36686279 25.494196,3.15 28.35,3.15 L28.2009861,3.15306006 C27.9755382,3.74784462 27.8521294,4.39282253 27.8521294,5.0666241 Z" id="形状结合" fill="#3F4169"></path>
        </g>
        <path d="M9.21837662,5.61837662 C9.81837662,6.01837662 10.4183766,6.21837662 11.0183766,6.21837662 C11.6183766,6.21837662 12.2183766,6.01837662 12.8183766,5.61837662 C12.4183766,6.21837662 12.2183766,6.81837662 12.2183766,7.41837662 C12.2183766,8.01837662 12.4183766,8.61837662 12.8183766,9.21837662 C12.2183766,8.81837662 11.6183766,8.61837662 11.0183766,8.61837662 C10.4183766,8.61837662 9.81837662,8.81837662 9.21837662,9.21837662 C9.61837662,8.61837662 9.81837662,8.01837662 9.81837662,7.41837662 C9.81837662,6.81837662 9.61837662,6.21837662 9.21837662,5.61837662 Z" id="矩形" fill="#676895" transform="translate(11.018377, 7.418377) rotate(45.000000) translate(-11.018377, -7.418377) "></path>
        <path d="M4.44316038,9.72621539 C4.89316038,10.0262154 5.34316038,10.1762154 5.79316038,10.1762154 C6.24316038,10.1762154 6.69316038,10.0262154 7.14316038,9.72621539 C6.84316038,10.1762154 6.69316038,10.6262154 6.69316038,11.0762154 C6.69316038,11.5262154 6.84316038,11.9762154 7.14316038,12.4262154 C6.69316038,12.1262154 6.24316038,11.9762154 5.79316038,11.9762154 C5.34316038,11.9762154 4.89316038,12.1262154 4.44316038,12.4262154 C4.74316038,11.9762154 4.89316038,11.5262154 4.89316038,11.0762154 C4.89316038,10.6262154 4.74316038,10.1762154 4.44316038,9.72621539 Z" id="矩形备份" fill="#676895" transform="translate(5.793160, 11.076215) rotate(45.000000) translate(-5.793160, -11.076215) "></path>
    </g>
</svg>