<?xml version="1.0" encoding="UTF-8"?>
<svg width="36px" height="30px" viewBox="0 0 36 30" version="1.1" xmlns="http://www.w3.org/2000/svg" xmlns:xlink="http://www.w3.org/1999/xlink">
    <title>icon_snowy_s</title>
    <g id="icon_snowy_s" stroke="none" stroke-width="1" fill="none" fill-rule="evenodd">
        <g id="icon-weather-sunny-day备份-2">
            <rect id="矩形" x="0" y="0" width="36" height="29.7"></rect>
            <path d="M20.6785714,20.5714286 C25.8266543,20.5714286 30,16.3980828 30,11.25 C30,6.10191715 25.8266543,1.92857143 20.6785714,1.92857143 C15.5304886,1.92857143 11.3571429,6.10191715 11.3571429,11.25 C11.3571429,12.9793273 11.6396104,16.0864702 12.2045455,20.5714286 C16.1511682,20.5714286 18.9758435,20.5714286 20.6785714,20.5714286 Z" id="椭圆形" fill="#E1EEFA"></path>
            <circle id="椭圆形备份-2" fill="#F0F8FF" cx="11.7857143" cy="14.7857143" r="5.78571429"></circle>
            <polygon id="多边形" fill="#EFF8FF" points="10.2857143 22.0714286 11.5847524 22.8214286 11.5847524 24.3214286 10.2857143 25.0714286 8.98667618 24.3214286 8.98667618 22.8214286"></polygon>
            <polygon id="多边形备份" fill="#EFF8FF" points="26.3571429 21 27.656181 21.75 27.656181 23.25 26.3571429 24 25.0581048 23.25 25.0581048 21.75"></polygon>
            <polygon id="多边形备份-2" fill="#EFF8FF" transform="translate(18.642857, 26.142857) rotate(-330.000000) translate(-18.642857, -26.142857) " points="18.6428571 24.2142857 20.313049 25.1785714 20.313049 27.1071429 18.6428571 28.0714286 16.9726653 27.1071429 16.9726653 25.1785714"></polygon>
        </g>
    </g>
</svg>