<?xml version="1.0" encoding="UTF-8"?>
<svg width="36px" height="30px" viewBox="0 0 36 30" version="1.1" xmlns="http://www.w3.org/2000/svg" xmlns:xlink="http://www.w3.org/1999/xlink">
    <title>icon_sunny_s</title>
    <g id="icon_sunny_s" stroke="none" stroke-width="1" fill="none" fill-rule="evenodd">
        <g id="icon-weather-sunny-day备份-5">
            <path d="M18.6685714,23.9721429 L18.6685714,27.5785714 L16.9714286,27.5785714 L16.9714286,23.9721429 L18.6685714,23.9721429 Z M24.9363418,20.7358932 L27.4238747,23.2234261 L26.1934261,24.4538747 L23.7058932,21.9663418 L24.9363418,20.7358932 Z M10.6800407,20.7358932 L11.9104893,21.9663418 L9.4229564,24.4538747 L8.19250779,23.2234261 L10.6800407,20.7358932 Z M17.7139286,8.48571429 C21.0530816,8.48571429 23.76,11.1926327 23.76,14.5317857 C23.76,17.8709388 21.0530816,20.5778571 17.7139286,20.5778571 C14.3747755,20.5778571 11.6678571,17.8709388 11.6678571,14.5317857 C11.6678571,11.1926327 14.3747755,8.48571429 17.7139286,8.48571429 Z M30.6546429,13.8953571 L30.6546429,15.5925 L27.0482143,15.5925 L27.0482143,13.8953571 L30.6546429,13.8953571 Z M8.59178571,13.8953571 L8.59178571,15.5925 L4.98535714,15.5925 L4.98535714,13.8953571 L8.59178571,13.8953571 Z M26.1934261,5.22250779 L27.4238747,6.4529564 L24.9363418,8.94048929 L23.7058932,7.71004069 L26.1934261,5.22250779 Z M9.4229564,5.22250779 L11.9104893,7.71004069 L10.6800407,8.94048929 L8.19250779,6.4529564 L9.4229564,5.22250779 Z M18.6685714,2.12142857 L18.6685714,5.72785714 L16.9714286,5.72785714 L16.9714286,2.12142857 L18.6685714,2.12142857 Z" id="形状结合" fill="#FFA522"></path>
            <rect id="矩形" x="0" y="0" width="35.64" height="29.7"></rect>
        </g>
    </g>
</svg>