<?xml version="1.0" encoding="UTF-8"?>
<svg width="36px" height="30px" viewBox="0 0 36 30" version="1.1" xmlns="http://www.w3.org/2000/svg" xmlns:xlink="http://www.w3.org/1999/xlink">
    <title>icon_rainy_s</title>
    <g id="icon_rainy_s" stroke="none" stroke-width="1" fill="none" fill-rule="evenodd">
        <g id="icon-weather-sunny-day备份-4">
            <rect id="矩形" x="0" y="0" width="35.64" height="29.7"></rect>
            <path d="M20.4717857,20.3657143 C25.5683877,20.3657143 29.7,16.234102 29.7,11.1375 C29.7,6.04089798 25.5683877,1.90928571 20.4717857,1.90928571 C15.3751837,1.90928571 11.2435714,6.04089798 11.2435714,11.1375 C11.2435714,12.8495341 11.5232143,15.9256055 12.0825,20.3657143 C15.9896565,20.3657143 18.7860851,20.3657143 20.4717857,20.3657143 Z" id="椭圆形" fill="#CCD4D9"></path>
            <circle id="椭圆形备份-2" fill="#F0F8FF" cx="11.6678571" cy="14.6378571" r="5.72785714"></circle>
            <path d="M8.69785714,25.1929127 C9.1665102,25.1929127 9.54642857,24.8129943 9.54642857,24.3443413 C9.54642857,23.8756882 9.04392124,21.4417349 8.76459507,21.4264989 C8.4852689,21.411263 7.84928571,23.8756882 7.84928571,24.3443413 C7.84928571,24.8129943 8.22920408,25.1929127 8.69785714,25.1929127 Z" id="椭圆形" fill="#3976F9" transform="translate(8.697857, 23.309671) rotate(-330.000000) translate(-8.697857, -23.309671) "></path>
            <path d="M15.8046429,28.0028571 C16.4490408,28.0028571 16.9714286,27.489294 16.9714286,26.8557819 C16.9714286,26.2222697 16.280481,22.9321192 15.8964075,22.9115237 C15.512334,22.8909281 14.6378571,26.2222697 14.6378571,26.8557819 C14.6378571,27.489294 15.1602449,28.0028571 15.8046429,28.0028571 Z" id="椭圆形备份" fill="#3976F9" transform="translate(15.804643, 25.457143) rotate(-330.000000) translate(-15.804643, -25.457143) "></path>
            <path d="M24.1842857,24.3443413 C24.6529388,24.3443413 25.0328571,23.9644229 25.0328571,23.4957698 C25.0328571,23.0271168 24.5303498,20.5931634 24.2510236,20.5779275 C23.9716975,20.5626915 23.3357143,23.0271168 23.3357143,23.4957698 C23.3357143,23.9644229 23.7156327,24.3443413 24.1842857,24.3443413 Z" id="椭圆形备份-3" fill="#3976F9" transform="translate(24.184286, 22.461099) rotate(-330.000000) translate(-24.184286, -22.461099) "></path>
        </g>
    </g>
</svg>