<?xml version="1.0" encoding="UTF-8"?>
<svg width="36px" height="30px" viewBox="0 0 36 30" version="1.1" xmlns="http://www.w3.org/2000/svg" xmlns:xlink="http://www.w3.org/1999/xlink">
    <title>icon_thunderstorm_s</title>
    <g id="icon_thunderstorm_s" stroke="none" stroke-width="1" fill="none" fill-rule="evenodd">
        <g id="icon-weather-cloudy-becoming-fine备份-2">
            <rect id="矩形" x="0" y="0" width="35.64" height="29.7"></rect>
            <path d="M20.4717857,20.3657143 C25.5683877,20.3657143 29.7,16.234102 29.7,11.1375 C29.7,6.04089798 25.5683877,1.90928571 20.4717857,1.90928571 C15.3751837,1.90928571 11.2435714,6.04089798 11.2435714,11.1375 C11.2435714,12.8495341 11.5232143,15.9256055 12.0825,20.3657143 C15.9896565,20.3657143 18.7860851,20.3657143 20.4717857,20.3657143 Z" id="椭圆形" fill="#717582" opacity="0.85"></path>
            <circle id="椭圆形备份-2" fill="#6B6F7C" cx="11.6678571" cy="14.6378571" r="5.72785714"></circle>
            <path d="M8.69785714,25.1929127 C9.1665102,25.1929127 9.54642857,24.8129943 9.54642857,24.3443413 C9.54642857,23.8756882 9.04392124,21.4417349 8.76459507,21.4264989 C8.4852689,21.411263 7.84928571,23.8756882 7.84928571,24.3443413 C7.84928571,24.8129943 8.22920408,25.1929127 8.69785714,25.1929127 Z" id="椭圆形" fill="#3976F9" transform="translate(8.697857, 23.309671) rotate(-330.000000) translate(-8.697857, -23.309671) "></path>
            <path d="M24.1842857,24.3443413 C24.6529388,24.3443413 25.0328571,23.9644229 25.0328571,23.4957698 C25.0328571,23.0271168 24.5303498,20.5931634 24.2510236,20.5779275 C23.9716975,20.5626915 23.3357143,23.0271168 23.3357143,23.4957698 C23.3357143,23.9644229 23.7156327,24.3443413 24.1842857,24.3443413 Z" id="椭圆形备份-3" fill="#3976F9" transform="translate(24.184286, 22.461099) rotate(-330.000000) translate(-24.184286, -22.461099) "></path>
            <polygon id="路径-3" fill="#FFC052" points="14.7513702 21.0021429 18.0932233 21.0021429 17.463252 22.0002621 19.305 22.0002621 14.7513702 28.215 15.6107285 23.7284276 13.7892857 23.7284276"></polygon>
        </g>
    </g>
</svg>