<?xml version="1.0" encoding="UTF-8"?>
<svg width="36px" height="30px" viewBox="0 0 36 30" version="1.1" xmlns="http://www.w3.org/2000/svg" xmlns:xlink="http://www.w3.org/1999/xlink">
    <title>icon_sunny_at_night_s</title>
    <g id="icon_sunny_at_night_s" stroke="none" stroke-width="1" fill="none" fill-rule="evenodd">
        <path d="M17.5525663,7.84853812 C16.2371571,14.0370519 20.2341767,20.1300858 26.4801594,21.4577105 C26.5841494,21.4798142 26.6881072,21.5004577 26.7920111,21.5196548 C24.2755205,25.403122 19.511135,27.5311661 14.6771094,26.5036622 C8.43112667,25.1760376 4.4341071,19.0830036 5.7495163,12.8944899 C7.04302512,6.80900935 12.9918706,2.89728262 19.1287758,4.0311272 C18.3932198,5.16569231 17.8499015,6.44968581 17.5525663,7.84853812 Z" id="形状结合" fill="#E1EEFA"></path>
        <path d="M27.5106798,9.85144967 C28.1106798,10.2514497 28.7106798,10.4514497 29.3106798,10.4514497 C29.9106798,10.4514497 30.5106798,10.2514497 31.1106798,9.85144967 C30.7106798,10.4514497 30.5106798,11.0514497 30.5106798,11.6514497 C30.5106798,12.2514497 30.7106798,12.8514497 31.1106798,13.4514497 C30.5106798,13.0514497 29.9106798,12.8514497 29.3106798,12.8514497 C28.7106798,12.8514497 28.1106798,13.0514497 27.5106798,13.4514497 C27.9106798,12.8514497 28.1106798,12.2514497 28.1106798,11.6514497 C28.1106798,11.0514497 27.9106798,10.4514497 27.5106798,9.85144967 Z" id="矩形" fill="#676895" transform="translate(29.310680, 11.651450) rotate(45.000000) translate(-29.310680, -11.651450) "></path>
        <path d="M23.5323535,4.39493402 C23.9823535,4.69493402 24.4323535,4.84493402 24.8823535,4.84493402 C25.3323535,4.84493402 25.7823535,4.69493402 26.2323535,4.39493402 C25.9323535,4.84493402 25.7823535,5.29493402 25.7823535,5.74493402 C25.7823535,6.19493402 25.9323535,6.64493402 26.2323535,7.09493402 C25.7823535,6.79493402 25.3323535,6.64493402 24.8823535,6.64493402 C24.4323535,6.64493402 23.9823535,6.79493402 23.5323535,7.09493402 C23.8323535,6.64493402 23.9823535,6.19493402 23.9823535,5.74493402 C23.9823535,5.29493402 23.8323535,4.84493402 23.5323535,4.39493402 Z" id="矩形备份" fill="#676895" transform="translate(24.882354, 5.744934) rotate(45.000000) translate(-24.882354, -5.744934) "></path>
    </g>
</svg>