<?xml version="1.0" encoding="UTF-8"?>
<svg width="36px" height="30px" viewBox="0 0 36 30" version="1.1" xmlns="http://www.w3.org/2000/svg" xmlns:xlink="http://www.w3.org/1999/xlink">
    <title>icon_rainy_at_night_s</title>
    <g id="icon_rainy_at_night_s" stroke="none" stroke-width="1" fill="none" fill-rule="evenodd">
        <g id="icon-weather-sunny-day备份-4">
            <path d="M18.6717857,23.9657143 C23.7683877,23.9657143 27.9,19.834102 27.9,14.7375 C27.9,9.64089798 23.7683877,5.50928571 18.6717857,5.50928571 C13.5751837,5.50928571 9.44357143,9.64089798 9.44357143,14.7375 C9.44357143,16.4495341 9.72321429,19.5256055 10.2825,23.9657143 C14.1896565,23.9657143 16.9860851,23.9657143 18.6717857,23.9657143 Z" id="椭圆形" fill="#CCD4D9"></path>
            <circle id="椭圆形备份-2" fill="#F1F8FF" cx="9.86785714" cy="18.2378571" r="5.72785714"></circle>
            <path d="M26.9521294,2.3666241 C26.9521294,5.34896175 29.3697918,7.7666241 32.3521294,7.7666241 L32.5009632,7.76403927 C31.7899104,9.63942733 30.0643756,11.0157042 27.9943219,11.2229065 C26.936357,8.5558956 24.7701394,6.45059791 22.0643105,5.47417229 C22.2561681,2.66686279 24.594196,0.45 27.45,0.45 L27.3009861,0.453060057 C27.0755382,1.04784462 26.9521294,1.69282253 26.9521294,2.3666241 Z" id="形状结合" fill="#3F4169"></path>
            <path d="M9.15193949,27.5359711 C9.48420914,27.5359711 9.75356691,27.2666133 9.75356691,26.9343437 C9.75356691,26.602074 9.39729497,24.8764289 9.19925591,24.8656268 C9.00121685,24.8548247 8.55031206,26.602074 8.55031206,26.9343437 C8.55031206,27.2666133 8.81966983,27.5359711 9.15193949,27.5359711 Z" id="椭圆形" fill="#3976F9" transform="translate(9.151939, 26.200774) rotate(-330.000000) translate(-9.151939, -26.200774) "></path>
            <path d="M14.3615702,29.5281895 C14.8184409,29.5281895 15.1888079,29.1640792 15.1888079,28.7149263 C15.1888079,28.2657734 14.698934,25.9330944 14.4266302,25.9184924 C14.1543265,25.9038904 13.5343325,28.2657734 13.5343325,28.7149263 C13.5343325,29.1640792 13.9046994,29.5281895 14.3615702,29.5281895 Z" id="椭圆形备份" fill="#3976F9" transform="translate(14.361570, 27.723307) rotate(-330.000000) translate(-14.361570, -27.723307) "></path>
            <path d="M20.4772951,26.9343437 C20.8095648,26.9343437 21.0789226,26.6649859 21.0789226,26.3327162 C21.0789226,26.0004466 20.7226506,24.2748015 20.5246116,24.2639994 C20.3265725,24.2531973 19.8756677,26.0004466 19.8756677,26.3327162 C19.8756677,26.6649859 20.1450255,26.9343437 20.4772951,26.9343437 Z" id="椭圆形备份-3" fill="#3976F9" transform="translate(20.477295, 25.599147) rotate(-330.000000) translate(-20.477295, -25.599147) "></path>
        </g>
    </g>
</svg>